<svg width="32" height="32" viewBox="0 0 32 32" fill="none" xmlns="http://www.w3.org/2000/svg">
<rect width="32" height="32" fill="black" fill-opacity="0"/>
<rect width="32" height="32" fill="black" fill-opacity="0"/>
<rect width="32" height="32" fill="black" fill-opacity="0"/>
<path d="M16 28.8C23.0692 28.8 28.8 23.0692 28.8 16C28.8 8.93071 23.0692 3.19995 16 3.19995C8.93071 3.19995 3.19995 8.93071 3.19995 16C3.19995 23.0692 8.93071 28.8 16 28.8Z" fill="#33708D"/>
<path d="M28.553 18.5133C27.3856 24.3795 22.208 28.8 16 28.8C9.63712 28.8 4.35904 24.1581 3.36768 18.0755C4.02611 18.0438 4.68572 18.0453 5.344 18.08C9.12 18.2803 10.4083 19.4541 13.92 19.488C17.1482 19.5187 17.8752 18.544 21.024 18.08C22.9005 17.8035 25.4157 17.7415 28.553 18.5133Z" fill="#122D41"/>
<g opacity="0.15">
<rect width="22.1901" height="22.6502" fill="black" fill-opacity="0" transform="translate(3.19995 3.19995)"/>
<path opacity="0.15" d="M25.39 7.30172C23.0951 5.39115 20.2021 4.34716 17.216 4.35196C10.1465 4.35196 4.41596 10.0825 4.41596 17.152C4.41123 20.3784 5.62974 23.4866 7.82588 25.8502C6.37699 24.6503 5.21104 23.1452 4.41137 21.4424C3.61169 19.7396 3.19803 17.8812 3.19996 16C3.19996 8.93052 8.93052 3.19996 16 3.19996C17.7636 3.19777 19.5085 3.56113 21.1247 4.2671C22.7409 4.97307 24.1932 6.00634 25.39 7.30172V7.30172Z" fill="black"/>
</g>
<path d="M0.125 16C0.125 7.23255 7.23255 0.125 16 0.125C24.7674 0.125 31.875 7.23255 31.875 16C31.875 24.7674 24.7674 31.875 16 31.875C7.23255 31.875 0.125 24.7674 0.125 16ZM3.075 16C3.075 23.1385 8.86152 28.925 16 28.925C23.1385 28.925 28.925 23.1385 28.925 16C28.925 8.86152 23.1385 3.075 16 3.075C8.86152 3.075 3.075 8.86152 3.075 16Z" fill="#7A5037" stroke="#262222" stroke-width="0.25" stroke-miterlimit="10"/>
<g opacity="0.2">
<rect width="7.84" height="8.89088" fill="black" fill-opacity="0" transform="translate(18.4641 17.5731)"/>
<path opacity="0.2" d="M26.3041 17.5731C26.1655 18.6072 25.8678 19.6137 25.4216 20.5568C25.1999 21.0324 24.9432 21.4908 24.6536 21.9283C24.5819 22.0384 24.5102 22.1485 24.4315 22.2534L24.2004 22.5734C24.036 22.7782 23.8753 22.9869 23.6987 23.1808L23.5675 23.328C23.5246 23.3779 23.4804 23.4259 23.4337 23.4726L23.1592 23.7555C22.9672 23.9354 22.7796 24.1178 22.5774 24.2861C22.1793 24.6256 21.7576 24.9364 21.3153 25.216C20.4352 25.777 19.4734 26.198 18.4641 26.464C19.3847 26.0181 20.263 25.4896 21.0881 24.8851C21.4945 24.5841 21.885 24.2622 22.258 23.9206C22.6321 23.5821 22.9855 23.2216 23.3166 22.841C23.4881 22.6566 23.6424 22.457 23.8036 22.265C23.9649 22.073 24.1121 21.8669 24.2548 21.6582C24.3976 21.4496 24.5377 21.2403 24.6772 21.0291L24.875 20.7053C24.939 20.5971 25.003 20.4864 25.067 20.3763C25.5636 19.4814 25.9777 18.5431 26.3041 17.5731V17.5731Z" fill="white"/>
</g>
</svg>
